<?xml version="1.0" encoding="UTF-8"?>
<svg xmlns="http://www.w3.org/2000/svg" viewBox="0 0 1400 500">

  <!-- ===== PINE TREES (far left) ===== -->
  <g stroke="black" stroke-width="1" stroke-linejoin="round">
    <polygon points="10,430 24,388 38,430" fill="black"/>
    <polygon points="17,408 24,384 31,408" fill="black"/>
    <rect x="22" y="430" width="4" height="10" fill="black" stroke="none"/>
    <polygon points="32,430 48,384 64,430" fill="black"/>
    <polygon points="40,406 48,380 56,406" fill="black"/>
    <rect x="46" y="430" width="4" height="10" fill="black" stroke="none"/>
    <polygon points="58,430 71,400 84,430" fill="black"/>
    <polygon points="64,413 71,397 78,413" fill="black"/>
    <rect x="69" y="430" width="3" height="10" fill="black" stroke="none"/>
  </g>

  <!-- ===== FERRIS WHEEL ===== -->
  <g stroke="black" fill="none">
    <!-- Outer ring -->
    <circle cx="148" cy="298" r="74" stroke-width="1.4"/>
    <!-- Inner decorative ring -->
    <circle cx="148" cy="298" r="57" stroke-width="0.9"/>
    <!-- Hub -->
    <circle cx="148" cy="298" r="8" fill="black" stroke-width="1"/>
    <!-- 12 spokes -->
    <line x1="148" y1="298" x2="222" y2="298" stroke-width="0.9"/>
    <line x1="148" y1="298" x2="212" y2="335" stroke-width="0.9"/>
    <line x1="148" y1="298" x2="185" y2="362" stroke-width="0.9"/>
    <line x1="148" y1="298" x2="148" y2="372" stroke-width="0.9"/>
    <line x1="148" y1="298" x2="111" y2="362" stroke-width="0.9"/>
    <line x1="148" y1="298" x2="84"  y2="335" stroke-width="0.9"/>
    <line x1="148" y1="298" x2="74"  y2="298" stroke-width="0.9"/>
    <line x1="148" y1="298" x2="84"  y2="261" stroke-width="0.9"/>
    <line x1="148" y1="298" x2="111" y2="234" stroke-width="0.9"/>
    <line x1="148" y1="298" x2="148" y2="224" stroke-width="0.9"/>
    <line x1="148" y1="298" x2="185" y2="234" stroke-width="0.9"/>
    <line x1="148" y1="298" x2="212" y2="261" stroke-width="0.9"/>
    <!-- Gondolas -->
    <rect x="218" y="293" width="10" height="8" rx="1" fill="white" stroke-width="0.9"/>
    <rect x="207" y="330" width="10" height="8" rx="1" fill="white" stroke-width="0.9"/>
    <rect x="180" y="357" width="10" height="8" rx="1" fill="white" stroke-width="0.9"/>
    <rect x="143" y="367" width="10" height="8" rx="1" fill="white" stroke-width="0.9"/>
    <rect x="106" y="357" width="10" height="8" rx="1" fill="white" stroke-width="0.9"/>
    <rect x="79"  y="330" width="10" height="8" rx="1" fill="white" stroke-width="0.9"/>
    <rect x="69"  y="293" width="10" height="8" rx="1" fill="white" stroke-width="0.9"/>
    <rect x="79"  y="256" width="10" height="8" rx="1" fill="white" stroke-width="0.9"/>
    <rect x="106" y="229" width="10" height="8" rx="1" fill="white" stroke-width="0.9"/>
    <rect x="143" y="219" width="10" height="8" rx="1" fill="white" stroke-width="0.9"/>
    <rect x="180" y="229" width="10" height="8" rx="1" fill="white" stroke-width="0.9"/>
    <rect x="207" y="256" width="10" height="8" rx="1" fill="white" stroke-width="0.9"/>
    <!-- Support A-frame -->
    <line x1="112" y1="354" x2="82"  y2="430" stroke-width="1.5"/>
    <line x1="184" y1="354" x2="214" y2="430" stroke-width="1.5"/>
    <line x1="90"  y1="408" x2="206" y2="408" stroke-width="1"/>
    <line x1="76"  y1="430" x2="220" y2="430" stroke-width="1.2"/>
  </g>

  <!-- Trees between Ferris wheel and Space Needle -->
  <g stroke="black" stroke-width="0.9" stroke-linejoin="round">
    <polygon points="228,430 240,400 252,430" fill="black"/>
    <polygon points="234,412 240,396 246,412" fill="black"/>
    <polygon points="246,430 260,396 274,430" fill="black"/>
    <polygon points="252,411 260,393 268,411" fill="black"/>
  </g>

  <!-- ===== SPACE NEEDLE ===== -->
  <g stroke="black" stroke-linejoin="round">
    <!-- Outer legs -->
    <path d="M 258,430 C 268,392 282,350 298,326" stroke-width="1.6" fill="none"/>
    <path d="M 382,430 C 372,392 358,350 342,326" stroke-width="1.6" fill="none"/>
    <!-- Inner legs -->
    <path d="M 278,430 C 286,388 294,348 302,328" stroke-width="1.1" fill="none"/>
    <path d="M 362,430 C 354,388 346,348 338,328" stroke-width="1.1" fill="none"/>
    <!-- Horizontal cross braces -->
    <line x1="263" y1="412" x2="377" y2="412" stroke-width="0.8"/>
    <line x1="270" y1="392" x2="370" y2="392" stroke-width="0.8"/>
    <line x1="278" y1="370" x2="362" y2="370" stroke-width="0.8"/>
    <line x1="286" y1="348" x2="354" y2="348" stroke-width="0.8"/>
    <!-- Column -->
    <rect x="312" y="224" width="16" height="106" fill="white" stroke-width="1.6"/>
    <!-- Observation deck lower halo -->
    <ellipse cx="320" cy="240" rx="64" ry="18" fill="white" stroke-width="1.5"/>
    <!-- Saucer body -->
    <path d="M 256,254 L 262,220 Q 320,199 378,220 L 384,254 Z" fill="white" stroke-width="1.5"/>
    <!-- Saucer upper dome line -->
    <path d="M 262,220 Q 320,198 378,220" fill="none" stroke-width="1.2"/>
    <!-- Inner platform ring -->
    <ellipse cx="320" cy="222" rx="52" ry="13" fill="white" stroke-width="1"/>
    <!-- Deck detail ring -->
    <ellipse cx="320" cy="238" rx="61" ry="12" fill="none" stroke-width="0.8"/>
    <!-- Vertical window lines on deck -->
    <line x1="274" y1="228" x2="274" y2="252" stroke-width="0.7"/>
    <line x1="292" y1="223" x2="292" y2="254" stroke-width="0.7"/>
    <line x1="320" y1="221" x2="320" y2="255" stroke-width="0.7"/>
    <line x1="348" y1="223" x2="348" y2="254" stroke-width="0.7"/>
    <line x1="366" y1="228" x2="366" y2="252" stroke-width="0.7"/>
    <!-- Elevator shaft -->
    <rect x="316" y="164" width="8" height="62" fill="white" stroke-width="1.2"/>
    <line x1="318" y1="172" x2="322" y2="172" stroke-width="0.6"/>
    <line x1="318" y1="181" x2="322" y2="181" stroke-width="0.6"/>
    <line x1="318" y1="190" x2="322" y2="190" stroke-width="0.6"/>
    <line x1="318" y1="199" x2="322" y2="199" stroke-width="0.6"/>
    <line x1="318" y1="208" x2="322" y2="208" stroke-width="0.6"/>
    <line x1="318" y1="217" x2="322" y2="217" stroke-width="0.6"/>
    <!-- Spire -->
    <path d="M 313,164 L 320,66 L 327,164 Z" fill="black" stroke-width="0.8"/>
  </g>

  <!-- ===== BUILDING A (next to needle) ===== -->
  <g stroke="black" stroke-width="1.2" fill="white">
    <rect x="394" y="285" width="44" height="145"/>
    <line x1="406" y1="298" x2="406" y2="428" stroke-width="0.55"/>
    <line x1="418" y1="298" x2="418" y2="428" stroke-width="0.55"/>
    <line x1="430" y1="298" x2="430" y2="428" stroke-width="0.55"/>
    <line x1="396" y1="312" x2="436" y2="312" stroke-width="0.5"/>
    <line x1="396" y1="330" x2="436" y2="330" stroke-width="0.5"/>
    <line x1="396" y1="348" x2="436" y2="348" stroke-width="0.5"/>
    <line x1="396" y1="366" x2="436" y2="366" stroke-width="0.5"/>
    <line x1="396" y1="384" x2="436" y2="384" stroke-width="0.5"/>
    <line x1="396" y1="402" x2="436" y2="402" stroke-width="0.5"/>
    <line x1="396" y1="420" x2="436" y2="420" stroke-width="0.5"/>
  </g>

  <!-- ===== BUILDING B (stepped top) ===== -->
  <g stroke="black" stroke-width="1.2" fill="white">
    <rect x="444" y="250" width="50" height="180"/>
    <rect x="448" y="234" width="42" height="19"/>
    <rect x="453" y="220" width="32" height="17"/>
    <line x1="456" y1="264" x2="456" y2="428" stroke-width="0.55"/>
    <line x1="468" y1="264" x2="468" y2="428" stroke-width="0.55"/>
    <line x1="480" y1="264" x2="480" y2="428" stroke-width="0.55"/>
    <line x1="446" y1="278" x2="492" y2="278" stroke-width="0.5"/>
    <line x1="446" y1="298" x2="492" y2="298" stroke-width="0.5"/>
    <line x1="446" y1="318" x2="492" y2="318" stroke-width="0.5"/>
    <line x1="446" y1="338" x2="492" y2="338" stroke-width="0.5"/>
    <line x1="446" y1="358" x2="492" y2="358" stroke-width="0.5"/>
    <line x1="446" y1="378" x2="492" y2="378" stroke-width="0.5"/>
    <line x1="446" y1="398" x2="492" y2="398" stroke-width="0.5"/>
    <line x1="446" y1="418" x2="492" y2="418" stroke-width="0.5"/>
  </g>

  <!-- ===== BUILDING C ===== -->
  <g stroke="black" stroke-width="1.2" fill="white">
    <rect x="500" y="268" width="40" height="162"/>
    <line x1="512" y1="282" x2="512" y2="428" stroke-width="0.55"/>
    <line x1="524" y1="282" x2="524" y2="428" stroke-width="0.55"/>
    <line x1="502" y1="296" x2="538" y2="296" stroke-width="0.5"/>
    <line x1="502" y1="316" x2="538" y2="316" stroke-width="0.5"/>
    <line x1="502" y1="336" x2="538" y2="336" stroke-width="0.5"/>
    <line x1="502" y1="356" x2="538" y2="356" stroke-width="0.5"/>
    <line x1="502" y1="376" x2="538" y2="376" stroke-width="0.5"/>
    <line x1="502" y1="396" x2="538" y2="396" stroke-width="0.5"/>
    <line x1="502" y1="416" x2="538" y2="416" stroke-width="0.5"/>
  </g>

  <!-- ===== COLUMBIA CENTER (tallest) ===== -->
  <g stroke="black" fill="white">
    <rect x="546" y="122" width="54" height="308" stroke-width="1.5"/>
    <rect x="550" y="108" width="46" height="17" stroke-width="1.2"/>
    <rect x="554" y="94"  width="38" height="17" stroke-width="1.2"/>
    <rect x="558" y="82"  width="30" height="14" stroke-width="1.2"/>
    <rect x="562" y="71"  width="22" height="13" stroke-width="1.2"/>
    <line x1="567" y1="71" x2="567" y2="48" stroke="black" stroke-width="1.1"/>
    <!-- Vertical glass-curtain lines -->
    <line x1="558" y1="130" x2="558" y2="428" stroke-width="0.65"/>
    <line x1="568" y1="130" x2="568" y2="428" stroke-width="0.65"/>
    <line x1="578" y1="130" x2="578" y2="428" stroke-width="0.65"/>
    <line x1="588" y1="130" x2="588" y2="428" stroke-width="0.65"/>
    <!-- Horizontal floors -->
    <line x1="548" y1="145" x2="598" y2="145" stroke-width="0.5"/>
    <line x1="548" y1="162" x2="598" y2="162" stroke-width="0.5"/>
    <line x1="548" y1="179" x2="598" y2="179" stroke-width="0.5"/>
    <line x1="548" y1="196" x2="598" y2="196" stroke-width="0.5"/>
    <line x1="548" y1="213" x2="598" y2="213" stroke-width="0.5"/>
    <line x1="548" y1="230" x2="598" y2="230" stroke-width="0.5"/>
    <line x1="548" y1="247" x2="598" y2="247" stroke-width="0.5"/>
    <line x1="548" y1="264" x2="598" y2="264" stroke-width="0.5"/>
    <line x1="548" y1="281" x2="598" y2="281" stroke-width="0.5"/>
    <line x1="548" y1="298" x2="598" y2="298" stroke-width="0.5"/>
    <line x1="548" y1="315" x2="598" y2="315" stroke-width="0.5"/>
    <line x1="548" y1="332" x2="598" y2="332" stroke-width="0.5"/>
    <line x1="548" y1="349" x2="598" y2="349" stroke-width="0.5"/>
    <line x1="548" y1="366" x2="598" y2="366" stroke-width="0.5"/>
    <line x1="548" y1="383" x2="598" y2="383" stroke-width="0.5"/>
    <line x1="548" y1="400" x2="598" y2="400" stroke-width="0.5"/>
    <line x1="548" y1="417" x2="598" y2="417" stroke-width="0.5"/>
  </g>

  <!-- ===== TALL GLASS TOWER (right of Columbia) ===== -->
  <g stroke="black" stroke-width="1.2" fill="white">
    <rect x="606" y="158" width="48" height="272"/>
    <rect x="610" y="144" width="40" height="17"/>
    <!-- Pointed top -->
    <path d="M 610,144 L 630,118 L 650,144" fill="white" stroke-width="1.2"/>
    <line x1="618" y1="172" x2="618" y2="428" stroke-width="0.6"/>
    <line x1="630" y1="172" x2="630" y2="428" stroke-width="0.6"/>
    <line x1="642" y1="172" x2="642" y2="428" stroke-width="0.6"/>
    <line x1="608" y1="188" x2="652" y2="188" stroke-width="0.5"/>
    <line x1="608" y1="208" x2="652" y2="208" stroke-width="0.5"/>
    <line x1="608" y1="228" x2="652" y2="228" stroke-width="0.5"/>
    <line x1="608" y1="248" x2="652" y2="248" stroke-width="0.5"/>
    <line x1="608" y1="268" x2="652" y2="268" stroke-width="0.5"/>
    <line x1="608" y1="288" x2="652" y2="288" stroke-width="0.5"/>
    <line x1="608" y1="308" x2="652" y2="308" stroke-width="0.5"/>
    <line x1="608" y1="328" x2="652" y2="328" stroke-width="0.5"/>
    <line x1="608" y1="348" x2="652" y2="348" stroke-width="0.5"/>
    <line x1="608" y1="368" x2="652" y2="368" stroke-width="0.5"/>
    <line x1="608" y1="388" x2="652" y2="388" stroke-width="0.5"/>
    <line x1="608" y1="408" x2="652" y2="408" stroke-width="0.5"/>
  </g>

  <!-- ===== MID-RISE BUILDING ===== -->
  <g stroke="black" stroke-width="1.2" fill="white">
    <rect x="660" y="245" width="58" height="185"/>
    <line x1="672" y1="258" x2="672" y2="428" stroke-width="0.55"/>
    <line x1="686" y1="258" x2="686" y2="428" stroke-width="0.55"/>
    <line x1="700" y1="258" x2="700" y2="428" stroke-width="0.55"/>
    <line x1="662" y1="272" x2="716" y2="272" stroke-width="0.5"/>
    <line x1="662" y1="295" x2="716" y2="295" stroke-width="0.5"/>
    <line x1="662" y1="318" x2="716" y2="318" stroke-width="0.5"/>
    <line x1="662" y1="341" x2="716" y2="341" stroke-width="0.5"/>
    <line x1="662" y1="364" x2="716" y2="364" stroke-width="0.5"/>
    <line x1="662" y1="387" x2="716" y2="387" stroke-width="0.5"/>
    <line x1="662" y1="410" x2="716" y2="410" stroke-width="0.5"/>
  </g>

  <!-- ===== CLOCK TOWER (Smith Tower style) ===== -->
  <g stroke="black" fill="white">
    <!-- Base tower -->
    <rect x="724" y="204" width="52" height="226" stroke-width="1.3"/>
    <!-- Upper ornate band -->
    <rect x="726" y="190" width="48" height="17" stroke-width="1.1"/>
    <!-- Cornice lines -->
    <line x1="724" y1="194" x2="776" y2="194" stroke-width="0.8"/>
    <!-- Pyramid roof -->
    <path d="M 728,190 L 750,148 L 772,190 Z" fill="white" stroke-width="1.2"/>
    <!-- Lantern -->
    <rect x="746" y="138" width="8" height="12" fill="white" stroke-width="1"/>
    <!-- Flag/spire -->
    <line x1="750" y1="138" x2="750" y2="118" stroke-width="1.1"/>
    <!-- Arched windows row 1 -->
    <path d="M 732,218 L 732,230 Q 737,238 742,230 L 742,218 Z" fill="none" stroke-width="0.85"/>
    <path d="M 748,218 L 748,230 Q 753,238 758,230 L 758,218 Z" fill="none" stroke-width="0.85"/>
    <path d="M 764,218 L 764,230 Q 769,238 774,230 L 774,218 Z" fill="none" stroke-width="0.85"/>
    <!-- Arched windows row 2 -->
    <path d="M 732,242 L 732,254 Q 737,262 742,254 L 742,242 Z" fill="none" stroke-width="0.85"/>
    <path d="M 748,242 L 748,254 Q 753,262 758,254 L 758,242 Z" fill="none" stroke-width="0.85"/>
    <path d="M 764,242 L 764,254 Q 769,262 774,254 L 774,242 Z" fill="none" stroke-width="0.85"/>
    <!-- Standard window grid below -->
    <line x1="738" y1="268" x2="738" y2="428" stroke-width="0.6"/>
    <line x1="750" y1="268" x2="750" y2="428" stroke-width="0.6"/>
    <line x1="762" y1="268" x2="762" y2="428" stroke-width="0.6"/>
    <line x1="726" y1="274" x2="776" y2="274" stroke-width="0.5"/>
    <line x1="726" y1="292" x2="776" y2="292" stroke-width="0.5"/>
    <line x1="726" y1="310" x2="776" y2="310" stroke-width="0.5"/>
    <line x1="726" y1="328" x2="776" y2="328" stroke-width="0.5"/>
    <line x1="726" y1="346" x2="776" y2="346" stroke-width="0.5"/>
    <line x1="726" y1="364" x2="776" y2="364" stroke-width="0.5"/>
    <line x1="726" y1="382" x2="776" y2="382" stroke-width="0.5"/>
    <line x1="726" y1="400" x2="776" y2="400" stroke-width="0.5"/>
    <line x1="726" y1="418" x2="776" y2="418" stroke-width="0.5"/>
  </g>

  <!-- ===== BUILDINGS RIGHT OF CLOCK TOWER ===== -->
  <g stroke="black" stroke-width="1.2" fill="white">
    <rect x="782" y="228" width="44" height="202"/>
    <rect x="786" y="214" width="36" height="17"/>
    <line x1="794" y1="242" x2="794" y2="428" stroke-width="0.55"/>
    <line x1="806" y1="242" x2="806" y2="428" stroke-width="0.55"/>
    <line x1="818" y1="242" x2="818" y2="428" stroke-width="0.55"/>
    <line x1="784" y1="256" x2="824" y2="256" stroke-width="0.5"/>
    <line x1="784" y1="276" x2="824" y2="276" stroke-width="0.5"/>
    <line x1="784" y1="296" x2="824" y2="296" stroke-width="0.5"/>
    <line x1="784" y1="316" x2="824" y2="316" stroke-width="0.5"/>
    <line x1="784" y1="336" x2="824" y2="336" stroke-width="0.5"/>
    <line x1="784" y1="356" x2="824" y2="356" stroke-width="0.5"/>
    <line x1="784" y1="376" x2="824" y2="376" stroke-width="0.5"/>
    <line x1="784" y1="396" x2="824" y2="396" stroke-width="0.5"/>
    <line x1="784" y1="416" x2="824" y2="416" stroke-width="0.5"/>
  </g>

  <g stroke="black" stroke-width="1.2" fill="white">
    <rect x="832" y="265" width="38" height="165"/>
    <line x1="842" y1="278" x2="842" y2="428" stroke-width="0.55"/>
    <line x1="854" y1="278" x2="854" y2="428" stroke-width="0.55"/>
    <line x1="834" y1="290" x2="868" y2="290" stroke-width="0.5"/>
    <line x1="834" y1="310" x2="868" y2="310" stroke-width="0.5"/>
    <line x1="834" y1="330" x2="868" y2="330" stroke-width="0.5"/>
    <line x1="834" y1="350" x2="868" y2="350" stroke-width="0.5"/>
    <line x1="834" y1="370" x2="868" y2="370" stroke-width="0.5"/>
    <line x1="834" y1="390" x2="868" y2="390" stroke-width="0.5"/>
    <line x1="834" y1="410" x2="868" y2="410" stroke-width="0.5"/>
  </g>

  <g stroke="black" stroke-width="1.2" fill="white">
    <rect x="876" y="250" width="46" height="180"/>
    <rect x="880" y="236" width="38" height="17"/>
    <rect x="884" y="223" width="30" height="16"/>
    <line x1="888" y1="264" x2="888" y2="428" stroke-width="0.55"/>
    <line x1="900" y1="264" x2="900" y2="428" stroke-width="0.55"/>
    <line x1="912" y1="264" x2="912" y2="428" stroke-width="0.55"/>
    <line x1="878" y1="278" x2="920" y2="278" stroke-width="0.5"/>
    <line x1="878" y1="298" x2="920" y2="298" stroke-width="0.5"/>
    <line x1="878" y1="318" x2="920" y2="318" stroke-width="0.5"/>
    <line x1="878" y1="338" x2="920" y2="338" stroke-width="0.5"/>
    <line x1="878" y1="358" x2="920" y2="358" stroke-width="0.5"/>
    <line x1="878" y1="378" x2="920" y2="378" stroke-width="0.5"/>
    <line x1="878" y1="398" x2="920" y2="398" stroke-width="0.5"/>
    <line x1="878" y1="418" x2="920" y2="418" stroke-width="0.5"/>
  </g>

  <!-- ===== PUBLIC MARKET CENTER SIGN ===== -->
  <g stroke="black">
    <!-- Sign board -->
    <rect x="934" y="236" width="96" height="62" rx="2" fill="white" stroke-width="1.3"/>
    <rect x="938" y="240" width="88" height="54" rx="1" fill="none" stroke-width="0.8"/>
    <!-- Sign text -->
    <text x="982" y="256" text-anchor="middle" font-family="Georgia, Times, serif" font-size="9" font-weight="bold" fill="black" stroke="none">PUBLIC</text>
    <text x="982" y="270" text-anchor="middle" font-family="Georgia, Times, serif" font-size="12" font-weight="bold" fill="black" stroke="none">MARKET</text>
    <text x="982" y="283" text-anchor="middle" font-family="Georgia, Times, serif" font-size="9" font-weight="bold" fill="black" stroke="none">CENTER</text>
    <!-- Clock below sign -->
    <circle cx="982" cy="310" r="14" fill="white" stroke-width="1.2"/>
    <circle cx="982" cy="310" r="11" fill="none" stroke-width="0.7"/>
    <!-- Clock ticks -->
    <line x1="982" y1="300" x2="982" y2="302" stroke-width="1"/>
    <line x1="991" y1="310" x2="989" y2="310" stroke-width="1"/>
    <line x1="982" y1="320" x2="982" y2="318" stroke-width="1"/>
    <line x1="973" y1="310" x2="975" y2="310" stroke-width="1"/>
    <!-- Clock hands -->
    <line x1="982" y1="310" x2="982" y2="303" stroke-width="1.2" stroke-linecap="round"/>
    <line x1="982" y1="310" x2="986" y2="312" stroke-width="1.2" stroke-linecap="round"/>
    <!-- Sign support poles -->
    <line x1="976" y1="324" x2="972" y2="430" stroke-width="1.4"/>
    <line x1="988" y1="324" x2="992" y2="430" stroke-width="1.4"/>
    <!-- Building behind market -->
    <rect x="930" y="298" width="104" height="132" fill="white" stroke-width="1.2"/>
    <!-- Awning at entrance -->
    <path d="M 930,345 L 982,332 L 1034,345" fill="white" stroke-width="1" stroke-linejoin="round"/>
    <line x1="930" y1="345" x2="1034" y2="345" stroke-width="0.8"/>
    <!-- Windows -->
    <line x1="944" y1="310" x2="944" y2="428" stroke-width="0.5"/>
    <line x1="958" y1="310" x2="958" y2="428" stroke-width="0.5"/>
    <line x1="972" y1="310" x2="972" y2="428" stroke-width="0.5"/>
    <line x1="986" y1="310" x2="986" y2="428" stroke-width="0.5"/>
    <line x1="1000" y1="310" x2="1000" y2="428" stroke-width="0.5"/>
    <line x1="1014" y1="310" x2="1014" y2="428" stroke-width="0.5"/>
    <line x1="1028" y1="310" x2="1028" y2="428" stroke-width="0.5"/>
    <line x1="932" y1="322" x2="1032" y2="322" stroke-width="0.5"/>
    <line x1="932" y1="360" x2="1032" y2="360" stroke-width="0.5"/>
    <line x1="932" y1="378" x2="1032" y2="378" stroke-width="0.5"/>
    <line x1="932" y1="396" x2="1032" y2="396" stroke-width="0.5"/>
    <line x1="932" y1="414" x2="1032" y2="414" stroke-width="0.5"/>
  </g>

  <!-- ===== TREES (right of market) ===== -->
  <g stroke="black" stroke-width="0.9" stroke-linejoin="round">
    <polygon points="1044,430 1056,392 1068,430" fill="black"/>
    <polygon points="1050,408 1056,388 1062,408" fill="black"/>
    <polygon points="1062,430 1076,388 1090,430" fill="black"/>
    <polygon points="1068,408 1076,384 1084,408" fill="black"/>
    <polygon points="1082,430 1092,402 1102,430" fill="black"/>
    <polygon points="1087,414 1092,399 1097,414" fill="black"/>
  </g>

  <!-- ===== MOUNT RAINIER (right background) ===== -->
  <g stroke="black">
    <!-- Mountain body -->
    <path d="M 1068,430 L 1160,246 L 1188,278 L 1222,228 L 1255,270 L 1278,238 L 1298,262 L 1326,242 L 1356,278 L 1378,260 L 1400,292 L 1400,430 Z"
          fill="white" stroke-width="1.1"/>
    <!-- Snow cap highlight lines -->
    <path d="M 1160,246 L 1188,278 L 1222,228 L 1255,270 L 1278,238 L 1298,262 L 1326,242 L 1338,256 L 1312,252 L 1290,268 L 1265,248 L 1238,274 L 1215,244 L 1192,266 L 1168,252 Z"
          fill="white" stroke-width="0.8"/>
    <!-- Treeline at mountain base -->
    <path d="M 1068,430 L 1082,412 L 1098,422 L 1116,406 L 1134,418 L 1152,408 L 1168,420 L 1185,410 L 1202,418 L 1220,408 L 1238,418 L 1256,408 L 1272,420 L 1292,410 L 1310,418 L 1330,408 L 1350,418 L 1370,410 L 1390,420 L 1400,415 L 1400,430 Z"
          fill="black" stroke="none"/>
  </g>

  <!-- ===== GROUND LINE ===== -->
  <line x1="0" y1="430" x2="1400" y2="430" stroke="black" stroke-width="1.3"/>

  <!-- ===== SEATTLE, WA TEXT ===== -->
  <text x="700" y="462" text-anchor="middle"
        font-family="Georgia, 'Times New Roman', serif"
        font-size="13" letter-spacing="9" fill="black">SEATTLE, WA</text>

</svg>
